<svg xmlns="http://www.w3.org/2000/svg" viewBox="0 0 1280 416">
<g transform="translate(0.000000,640.000000) scale(0.100000,-0.100000)">
	<path fill="rgba(0,0,0,0.5)" d="M20,6380c-19-19-20-33-20-340s1-321,20-340s33-20,340-20s321,1,340,20s20,33,20,340s-1,321-20,340s-33,20-340,20
		S39,6399,20,6380z"/>
	<path fill="rgba(0,0,0,0.5)" d="M902,6384c-22-15-22-16-22-340c0-311,1-325,20-344s33-20,340-20s321,1,340,20s20,33,20,340s-1,321-20,340s-33,20-338,20
		C971,6400,921,6398,902,6384z"/>
	<path fill="rgba(0,0,0,0.5)" d="M1777,6382c-15-17-17-55-17-345c0-325,0-326,22-341c19-14,68-16,336-16h313l25,25l25,25l-3,321c-3,304-4,321-22,335
		c-16,11-80,14-341,14C1816,6400,1792,6399,1777,6382z"/>
	<path fill="rgba(0,0,0,0.5)" d="M2657,6382c-15-17-17-55-17-345c0-325,0-326,22-341c19-14,68-16,334-16c292,0,313,1,335,19l24,19l3,304c2,166,0,313-3,325
		c-13,53-11,53-359,53C2696,6400,2672,6399,2657,6382z"/>
	<path fill="rgba(0,0,0,0.5)" d="M3537,6382c-15-17-17-55-17-345c0-325,0-326,22-341c19-14,68-16,333-16s314,2,333,16c22,15,22,16,22,343
		c0,305-1,329-18,344s-55,17-339,17C3576,6400,3552,6399,3537,6382z"/>
	<path fill="rgba(0,0,0,0.5)" d="M4416,6384c-9-8-18-25-21-37s-5-159-3-325l3-304l24-19c22-18,43-19,335-19c266,0,315,2,334,16c22,15,22,16,22,343
		c0,305-1,329-18,344s-55,17-340,17C4474,6400,4429,6398,4416,6384z"/>
	<path fill="rgba(0,0,0,0.5)" d="M5290,6380c-19-19-20-33-20-335v-316l25-24l24-25h313c268,0,317,2,336,16c22,15,22,16,22,343c0,305-1,329-18,344
		s-55,17-340,17C5323,6400,5309,6399,5290,6380z"/>
	<path fill="rgba(0,0,0,0.5)" d="M6170,6380c-19-19-20-33-20-339v-320l26-20c26-20,38-21,340-21c301,0,315,1,334,20s20,33,20,344c0,324,0,325-22,340
		c-19,14-69,16-340,16C6203,6400,6189,6399,6170,6380z"/>
	<path fill="rgba(0,0,0,0.5)" d="M7050,6380c-19-19-20-33-20-340s1-321,20-340s33-20,340-20s321,1,340,20s20,33,20,340s-1,321-20,340s-33,20-340,20
		S7069,6399,7050,6380z"/>
	<path fill="rgba(0,0,0,0.5)" d="M7930,6380c-19-19-20-33-20-340s1-321,20-340s33-20,340-20s321,1,340,20s20,33,20,340s-1,321-20,340s-33,20-340,20
		S7949,6399,7930,6380z"/>
	<path fill="rgba(0,0,0,0.5)" d="M8807,6382c-15-17-17-55-17-345c0-325,0-326,22-341c19-14,68-16,336-16h313l24,25l25,24v316c0,302-1,316-20,335
		s-33,20-343,20C8846,6400,8822,6399,8807,6382z"/>
	<path fill="rgba(0,0,0,0.5)" d="M9687,6382c-15-17-17-55-17-345c0-325,0-326,22-341c19-14,68-16,336-16h313l25,25l25,25l-3,321c-3,304-4,321-22,335
		c-16,11-80,14-341,14C9726,6400,9702,6399,9687,6382z"/>
	<path fill="rgba(0,0,0,0.5)" d="M10567,6382c-15-17-17-55-17-345c0-325,0-326,22-341c19-14,68-16,333-16s314,2,333,16c22,15,22,16,22,343
		c0,305-1,329-18,344s-55,17-339,17C10606,6400,10582,6399,10567,6382z"/>
	<path fill="rgba(0,0,0,0.5)" d="M11447,6382c-15-17-17-55-17-345v-327l24-15c20-14,101-15,670-13c628,3,648,4,662,22c11,16,14,79,14,338
		c0,305-1,319-20,338c-20,20-33,20-668,20C11496,6400,11462,6399,11447,6382z"/>
	<path fill="rgba(0,0,0,0.5)" d="M22,5524c-22-15-22-16-22-338c0-262,3-326,14-342c14-18,33-19,499-22c466-2,485-2,508,17l24,19l3,304c2,166,0,313-3,325
		c-13,55,3,53-518,53C106,5540,42,5538,22,5524z"/>
	<path fill="rgba(0,0,0,0.5)" d="M1227,5522c-15-17-17-55-17-345c0-325,0-326,22-341c19-14,69-16,339-16h318l20,26c20,26,21,38,21,340c0,301-1,315-20,334
		s-33,20-343,20C1266,5540,1242,5539,1227,5522z"/>
	<path fill="rgba(0,0,0,0.5)" d="M2106,5524c-9-8-16-23-16-32s0-156-1-327c0-305,1-310,22-327c19-16,51-18,336-18h314l24,25l25,24v306c0,302-3,337-34,357
		c-6,4-156,8-333,8C2164,5540,2119,5538,2106,5524z"/>
	<path fill="rgba(0,0,0,0.5)" d="M2984,5526c-18-14-19-29-19-341v-327l24-19c22-18,43-19,336-19s314,1,336,19l24,19l3,304c2,166,0,313-3,325
		c-13,53-11,53-359,53C3064,5540,3000,5537,2984,5526z"/>
	<path fill="rgba(0,0,0,0.5)" d="M3860,5520c-19-19-20-33-20-331c0-306,3-341,34-361c6-4,153-8,326-8c270,0,319,2,338,16c22,15,22,16,22,343
		c0,305-1,329-18,344s-55,17-340,17C3893,5540,3879,5539,3860,5520z"/>
	<path fill="rgba(0,0,0,0.5)" d="M4740,5520c-19-19-20-33-20-340s1-321,20-340s33-20,338-20c271,0,321,2,340,16c22,15,22,16,22,343c0,305-1,329-18,344
		s-55,17-340,17C4773,5540,4759,5539,4740,5520z"/>
	<path fill="rgba(0,0,0,0.5)" d="M5616,5518c-14-19-16-69-16-340c0-305,1-319,20-338s33-20,340-20s321,1,340,20s20,33,20,343c0,301-1,325-18,340
		s-55,17-345,17C5632,5540,5631,5540,5616,5518z"/>
	<path fill="rgba(0,0,0,0.5)" d="M6497,5522c-15-17-17-55-17-340c0-309,1-323,20-342s33-20,340-20s321,1,340,20s20,33,20,338c0,271-2,321-16,340
		c-15,22-16,22-343,22C6536,5540,6512,5539,6497,5522z"/>
	<path fill="rgba(0,0,0,0.5)" d="M7377,5522c-15-17-17-55-17-345c0-325,0-326,22-341c19-14,69-16,340-16c305,0,319,1,338,20s20,33,20,340s-1,321-20,340
		s-33,20-343,20C7416,5540,7392,5539,7377,5522z"/>
	<path fill="rgba(0,0,0,0.5)" d="M8257,5522c-15-17-17-55-17-345c0-325,0-326,22-341c19-14,68-16,338-16c173,0,320,4,326,8c31,20,34,55,34,361
		c0,298-1,312-20,331s-33,20-343,20C8296,5540,8272,5539,8257,5522z"/>
	<path fill="rgba(0,0,0,0.5)" d="M9136,5524c-9-8-18-25-21-37s-5-159-3-325l3-304l24-19c22-18,43-19,336-19s314,1,336,19l24,19v327c0,312-1,327-19,341
		c-16,11-80,14-342,14C9194,5540,9149,5538,9136,5524z"/>
	<path fill="rgba(0,0,0,0.5)" d="M10024,5532c-31-20-34-55-34-357v-306l25-24l24-25h314c285,0,317,2,336,18c20,17,21,24,21,327c0,171,0,318,0,327
		s-7,24-16,32c-13,14-58,16-337,16C10180,5540,10030,5536,10024,5532z"/>
	<path fill="rgba(0,0,0,0.5)" d="M10894,5526c-18-14-19-31-22-335l-3-321l25-25l25-25h313c268,0,317,2,336,16c22,15,22,16,22,344c0,285-2,331-16,344
		c-13,14-58,16-338,16C10974,5540,10910,5537,10894,5526z"/>
	<path fill="rgba(0,0,0,0.5)" d="M11776,5524c-9-8-18-25-21-37s-5-159-3-325l3-304l24-19c23-19,42-19,508-17c466,3,485,4,499,22c11,16,14,80,14,342
		c0,322,0,323-22,338c-20,14-84,16-505,16C11849,5540,11790,5538,11776,5524z"/>
	<path fill="rgba(0,0,0,0.5)" d="M17,4662c-15-17-17-55-17-338c0-175,4-324,8-330c21-32,50-34,652-34h601l24,25l25,24v316c0,302-1,316-20,335
		c-20,20-33,20-638,20C65,4680,32,4679,17,4662z"/>
	<path fill="rgba(0,0,0,0.5)" d="M1487,4662c-15-17-17-55-17-345c0-325,0-326,22-341c19-14,68-16,336-16h313l24,25l25,24v316c0,302-1,316-20,335
		s-33,20-343,20C1526,4680,1502,4679,1487,4662z"/>
	<path fill="rgba(0,0,0,0.5)" d="M2367,4662c-15-17-17-55-17-345c0-325,0-326,22-341c19-14,68-16,336-16h313l25,25l25,25l-3,321c-3,304-4,321-22,335
		c-16,11-80,14-341,14C2406,4680,2382,4679,2367,4662z"/>
	<path fill="rgba(0,0,0,0.5)" d="M3246,4664c-14-13-16-59-16-344c0-328,0-329,22-344c19-14,68-16,333-16s314,2,333,16c22,15,22,16,22,344
		c0,285-2,331-16,344c-13,14-58,16-339,16S3259,4678,3246,4664z"/>
	<path fill="rgba(0,0,0,0.5)" d="M4126,4664c-14-13-16-59-16-344c0-328,0-329,22-344c19-14,68-16,333-16s314,2,333,16c22,15,22,16,22,343
		c0,305-1,329-18,344s-55,17-340,17C4184,4680,4139,4678,4126,4664z"/>
	<path fill="rgba(0,0,0,0.5)" d="M5004,4666c-18-14-19-31-22-335l-3-321l25-25l25-25h313c268,0,317,2,336,16c22,15,22,16,22,343c0,305-1,329-18,344
		s-55,17-338,17C5083,4680,5020,4677,5004,4666z"/>
	<path fill="rgba(0,0,0,0.5)" d="M5880,4660c-19-19-20-33-20-335v-316l25-24l24-25h316c302,0,316,1,335,20s20,33,20,343c0,301-1,325-18,340s-55,17-340,17
		C5913,4680,5899,4679,5880,4660z"/>
	<path fill="rgba(0,0,0,0.5)" d="M6760,4660c-19-19-20-33-20-339c0-345,0-343,53-356c12-3,161-5,330-3c292,3,309,4,323,22c22,31,21,642-2,674
		c-15,22-16,22-340,22C6793,4680,6779,4679,6760,4660z"/>
	<path fill="rgba(0,0,0,0.5)" d="M7636,4658c-23-32-24-643-2-674c14-18,31-19,323-22c169-2,318,0,330,3c53,13,53,11,53,356c0,306-1,320-20,339
		s-33,20-344,20C7652,4680,7651,4680,7636,4658z"/>
	<path fill="rgba(0,0,0,0.5)" d="M8517,4662c-15-17-17-55-17-340c0-309,1-323,20-342s33-20,335-20h316l24,25l25,24v316c0,302-1,316-20,335s-33,20-343,20
		C8556,4680,8532,4679,8517,4662z"/>
	<path fill="rgba(0,0,0,0.5)" d="M9397,4662c-15-17-17-55-17-340c0-309,1-323,20-342s33-20,335-20h316l25,25l25,25l-3,321c-3,304-4,321-22,335
		c-16,11-80,14-341,14C9436,4680,9412,4679,9397,4662z"/>
	<path fill="rgba(0,0,0,0.5)" d="M10277,4662c-15-17-17-55-17-345c0-325,0-326,22-341c19-14,68-16,333-16s314,2,333,16c22,15,22,16,22,344
		c0,285-2,331-16,344c-13,14-58,16-338,16C10316,4680,10292,4679,10277,4662z"/>
	<path fill="rgba(0,0,0,0.5)" d="M11156,4662c-15-17-16-52-14-348l3-328l25-13c20-10,195-13,798-13c776,0,802,1,824,34c4,6,8,155,8,332c0,298-1,322-18,337
		c-17,16-88,17-814,17C11208,4680,11172,4679,11156,4662z"/>
	<path fill="rgba(0,0,0,0.5)" d="M17,3792c-15-17-17-55-17-339c0-297,1-321,18-336c17-16,84-17,753-17c619,0,738,2,755,14c18,14,19,29,19,339
		c0,260-3,327-14,340c-12,16-77,17-756,17C69,3810,32,3809,17,3792z"/>
	<path fill="rgba(0,0,0,0.5)" d="M1722,3798c-17-17-17-669,0-686s669-17,686,0s17,669,0,686S1739,3815,1722,3798z"/>
	<path fill="rgba(0,0,0,0.5)" d="M2602,3798c-17-17-17-669,0-686s669-17,686,0s17,669,0,686S2619,3815,2602,3798z"/>
	<path fill="rgba(0,0,0,0.5)" d="M3476,3788c-14-19-16-68-16-333s2-314,16-333c15-22,16-22,344-22c285,0,331,2,344,16c14,13,16,58,16,339s-2,326-16,339
		c-13,14-59,16-344,16C3492,3810,3491,3810,3476,3788z"/>
	<path fill="rgba(0,0,0,0.5)" d="M4356,3788c-14-19-16-68-16-333s2-314,16-333c15-22,16-22,344-22c285,0,331,2,344,16c14,13,16,58,16,339s-2,326-16,339
		c-13,14-59,16-344,16C4372,3810,4371,3810,4356,3788z"/>
	<path fill="rgba(0,0,0,0.5)" d="M5236,3788c-14-19-16-68-16-333s2-314,16-333c15-22,16-22,343-22c305,0,329,1,344,18s17,55,17,339c0,297-1,321-18,336
		s-55,17-345,17C5252,3810,5251,3810,5236,3788z"/>
	<path fill="rgba(0,0,0,0.5)" d="M6117,3792c-15-17-17-55-17-339c0-297,1-321,18-336s55-17,344-17c302,0,326,1,341,18s17,55,17,339c0,297-1,321-18,336
		s-55,17-344,17C6156,3810,6132,3809,6117,3792z"/>
	<path fill="rgba(0,0,0,0.5)" d="M6997,3792c-15-17-17-55-17-339c0-297,1-321,18-336s55-17,345-17c325,0,326,0,341,22c14,19,16,68,16,333s-2,314-16,333
		c-15,22-16,22-343,22C7036,3810,7012,3809,6997,3792z"/>
	<path fill="rgba(0,0,0,0.5)" d="M7876,3794c-14-13-16-58-16-339s2-326,16-339c13-14,59-16,344-16c328,0,329,0,344,22c14,19,16,68,16,333s-2,314-16,333
		c-15,22-16,22-344,22C7935,3810,7889,3808,7876,3794z"/>
	<path fill="rgba(0,0,0,0.5)" d="M8750,3791c-6-13-10-137-10-336s4-323,10-336c10-18,25-19,344-19c298,0,335,2,347,17c11,13,14,80,14,338s-3,325-14,338
		c-12,15-49,17-347,17C8775,3810,8760,3809,8750,3791z"/>
	<path fill="rgba(0,0,0,0.5)" d="M9632,3798c-9-9-12-99-12-343s3-334,12-343c17-17,669-17,686,0s17,669,0,686S9649,3815,9632,3798z"/>
	<path fill="rgba(0,0,0,0.5)" d="M10512,3798c-9-9-12-98-12-339c0-284,2-330,16-343c14-14,130-16,1133-16c1070,0,1119,1,1134,18s17,55,17,339
		c0,297-1,321-18,336c-17,16-110,17-1138,17C10786,3810,10521,3807,10512,3798z"/>
	<path fill="rgba(0,0,0,0.5)" d="M20,2940c-19-19-20-33-20-340s1-321,20-340s33-20,503-20c479,0,484,0,503,21c18,20,19,40,19,341v320l-24,19
		c-22,18-45,19-502,19C53,2960,39,2959,20,2940z"/>
	<path fill="rgba(0,0,0,0.5)" d="M1232,2944c-22-15-22-16-22-343c0-305,1-329,18-344s55-17,338-17c175,0,324,4,330,8c31,20,34,55,34,357v306l-25,24l-24,25
		h-313C1300,2960,1251,2958,1232,2944z"/>
	<path fill="rgba(0,0,0,0.5)" d="M2112,2944c-22-15-22-15-22-344s0-329,22-344c20-14,84-16,498-16s478,2,498,16c22,15,22,15,22,344s0,329-22,344
		c-20,14-84,16-498,16S2132,2958,2112,2944z"/>
	<path fill="rgba(0,0,0,0.5)" d="M3315,2935l-25-24v-309c0-298,1-310,21-336l20-26h2822c1552,0,2827,4,2833,8c31,20,34,55,34,357v306l-25,24l-24,25H6155
		H3339L3315,2935z"/>
	<path fill="rgba(0,0,0,0.5)" d="M9142,2944c-22-15-22-16-22-343c0-305,1-329,18-344s55-17,339-17c297,0,321,1,336,18s17,55,17,345c0,325,0,326-22,341
		c-19,14-68,16-333,16S9161,2958,9142,2944z"/>
	<path fill="rgba(0,0,0,0.5)" d="M10022,2944c-22-15-22-16-22-343c0-305,1-329,18-344s55-17,339-17c297,0,321,1,336,18s17,55,17,345c0,325,0,326-22,341
		c-19,14-68,16-333,16S10041,2958,10022,2944z"/>
	<path fill="rgba(0,0,0,0.5)" d="M10902,2944c-22-15-22-15-22-344s0-329,22-344c20-14,84-16,500-16c465,0,479,1,498,20s20,33,20,340s-1,321-20,340
		s-33,20-498,20C10986,2960,10922,2958,10902,2944z"/>
	<path fill="rgba(0,0,0,0.5)" d="M12100,2940c-19-19-20-33-20-340s1-321,20-340s33-20,340-20s321,1,340,20s20,33,20,340s-1,321-20,340s-33,20-340,20
		S12119,2959,12100,2940z"/>
</g>
</svg>