<?xml version="1.0" encoding="utf-8"?> <svg version="1.1" xmlns="http://www.w3.org/2000/svg" viewBox="0 0 980 658"> <path fill="rgba(0,0,0,0.5)" d="M398,339.9c8.5,0,16.4,0,24.7,0c0,10.2,0,20.1,0,30.4c-11.4,0-22.7,0-34,0c-7.8,0-8.8,1-8.8,8.9c0,11.3,0,22.6,0,34.1 c-10.4,0-20.3,0-30.7,0c0-11.7,0-23.1,0-34.6c0-7.2-1.2-8.4-8.4-8.4c-11.3,0-22.6,0-34.3,0c0-10,0-19.9,0-30.4c8.2,0,16.7,0,25.1,0 c3.7,0,7.3,0,11,0c4.5,0,6.7-2,6.7-6.7c-0.1-12,0-23.9,0-36.2c10.3,0,20.2,0,30.7,0c0,7.2,0,14.4,0,21.7c0,4.8,0.1,9.7,0,14.5 c-0.1,4.7,2.2,6.7,6.7,6.6C390.2,339.9,393.8,339.9,398,339.9z"/> <path fill="rgba(0,0,0,0.5)" d="M685,321.1c9.9,28.8,4.9,54.6-15.8,76.1c-20.7,21.4-46.4,27.8-74.7,18.4c-28.2-9.3-44.9-29.9-49.2-59.3 c-5.2-35.4,17.6-69.6,52-79.3c35-9.9,71.6,7.4,86.5,40.9C684.2,318.9,684.5,319.8,685,321.1 M662.6,314 c-15.9-21.1-41.8-28.5-66.3-19c-24.7,9.6-38.8,35.3-34.3,62.5c4.1,24.9,27.2,44.9,52.8,45.5c22.8,0.5,40.5-9.1,51.4-29.1 C677.3,353.9,675.7,333.7,662.6,314z"/> <path fill="rgba(0,0,0,0.5)" d="M312.5,189.6c3,39.3-25.5,73.9-63.9,78.2c-39.3,4.4-75.1-23.5-80.4-62.6c-5.5-40.5,23.2-77.1,65.2-81.7 c40.5-4.5,74.9,26.2,78.9,64.1C312.3,188.2,312.4,188.7,312.5,189.6 M293.2,177.4c-8.8-25.2-32.3-40-59.2-37.5 c-32.1,3-54.6,33.4-49,66.4c5.1,30.3,37.2,51.1,67.3,44.3C282.2,243.7,304.2,212.3,293.2,177.4z"/> <path fill="#00944480" d="M763.4,243.7c9.4,11.3,11,24.6,4.6,36.4c-5.9,11.1-18.7,18-30.6,16.6c-13.6-1.6-24-10.3-27.7-23.1 c-3.9-13.7,1.9-28.3,14.2-35.7C736.6,230.3,751.8,232.4,763.4,243.7z"/> <path fill="#BE1E2D80" d="M798.8,167.5c17-4.8,32.2,1.6,39.1,16c6.5,13.5,2.7,30.1-9.3,39c-10.6,7.8-22.2,9-33.8,2.8 c-12-6.4-17.8-16.9-16.8-30.4C779.1,181.7,786.2,172.6,798.8,167.5z"/> <path fill="#FBB04080" d="M720.9,158.2c-11-9.3-15-20.6-11.1-34.1c3.7-12.6,12.5-20.1,25.5-22.3c13.8-2.3,27.3,4.9,33.3,17.5 c6,12.4,3.3,27.1-6.7,36.6c-10.1,9.6-25.1,11.5-37.4,4.6C723.4,159.9,722.3,159.1,720.9,158.2z"/> <path fill="#1C75BC80" d="M703.3,181.8c7.8,16.5,3.3,33.4-10.9,42.3c-13.5,8.5-31.3,5.6-41.3-6.8c-11.5-14.3-8.7-35.2,6.2-45.8 C672.6,160.7,692.6,165.1,703.3,181.8z"/> <path fill="rgba(0,0,0,0.5)" d="M564.3,213.6c-9.9,0.7-17.2-4-19.2-12.1c-2-7.9,2-16.2,9.4-19.4c8.6-3.8,19,0.6,22.2,9.4 C580.2,200.9,575.1,210.2,564.3,213.6z"/> <path fill="rgba(0,0,0,0.5)" d="M423.5,181c9.1,2.8,13.5,8.2,13.7,16c0.1,7.2-4.1,13.5-10.7,15.9c-6.6,2.3-12.5,0.9-17.5-3.9c-4.9-4.7-6.3-11.8-3.6-18 c2.8-6.3,7.7-9.9,14.7-10.1C421.1,180.8,422.1,180.9,423.5,181z"/> <path fill="rgba(0,0,0,0.5)" d="M628.9,302.8c22.2,6.6,36.1,26.6,33.9,48.4c-2.2,22.3-19.6,39.3-42.3,41.5c-23,2.2-45.7-16-48.6-38.8 c-3.1-25.4,13.2-48.5,37.3-51.8C615.5,301.3,622.1,302.5,628.9,302.8z"/> <path fill="rgba(0,0,0,0.5)" d="M275.6,224.6c-13,14.7-29,20-47.5,15.1c-17.5-4.7-28.5-16.6-32.7-34.3c-5.8-24.1,10.6-49.5,34.9-54.4 c25.2-5.2,49.8,10.8,54.6,35.3C287.7,200.4,284.5,213,275.6,224.6z"/> <path fill="rgba(0,0,0,0.5)" d="M979.5,489.3c-2.6-53.8-16.2-105.3-32.4-156.3C927,269.7,907.3,206.2,882,144.7c-5.1-12.4-11.3-24.4-17.3-36.4 c-3.2-6.4-7.9-11.8-14.1-15.8c-6.8-4.4-11.6-10.6-13.3-18.7c-2.9-14.1-11.8-23.6-23.4-30.9c-16.7-10.5-35.1-17.4-53.6-23.8 c-22.6-7.9-45.7-14.3-69.5-17.7c-2.1-0.3-4.3-0.5-7.1-1.1C676.4,0,669.7,0,663,0c-13.6,6.7-24.8,17.8-40,21.4 c-5.8,1.4-11.7,2.7-17.6,2.8c-75,0.2-150-0.2-225,0.3c-19.9,0.1-36.5-6.9-52.2-18c-3.8-2.7-8.6-3.9-13.5-6.1C307.4,0,300.7,0,294,0 c-2.8,0.6-5.6,1.4-8.4,1.9c-40.4,7.4-79.3,19.4-115.7,38.8c-13.9,7.4-24.2,18-27.6,34.1c-1.5,7.2-5.8,12.9-11.8,16.7 c-8.7,5.5-14.5,13.4-18.4,22.4c-11.9,27.8-24.1,55.4-34.5,83.7c-22.9,62.7-43.3,126.3-61,190.6C5.4,429.3-0.8,471.1,0.1,513.7 c0.6,28.8,4.8,57,17.7,83.2C33.1,628.1,58,647.4,91.5,656c1.4,0.4,2.9,0.8,4.8,1.6c1.6,0.4,2.6,0.4,3.7,0.4 c22.4-15.7,43.6-32.9,62.4-52.8c14.6-15.5,28.5-31.8,43.6-46.8c24-23.7,49.9-45.1,80-60.9c12.3-6.4,25.2-9.6,39.3-9.6 c110.8,0.2,221.6,0.2,332.4,0.1c16,0,30,5.5,43.3,13.2c30.4,17.5,56.8,40.2,81.2,65.1c15.7,16.1,30.3,33.2,46.1,49.3 c15.5,15.9,33,29.5,52,42.1c1,0.3,1.4,0.3,1.8,0.3c5-1.5,10-2.8,14.9-4.4c39-12.8,62.3-40.4,74-78.7 C979.4,547,980.9,518.3,979.5,489.3z M733.3,91.5c20.6-3.8,41.9,9.9,47.4,30.7c5.6,21.2-6.1,43.3-26.8,50.6 c-1.3,0.4-2.5,0.8-3.8,1.2c-24.8,4.8-47-9.7-51.4-32.9C694.4,117.5,709.5,95.9,733.3,91.5z M641,173.6 c11.6-15.2,28.3-21.5,44.8-16.9c17.7,4.9,28.4,16.6,31.4,34.8c3.6,21.7-11.3,42.7-33.3,47.3c-21.3,4.4-43.4-9.2-48.9-30.4 C631.9,196,633.9,184.3,641,173.6z M571,172.2c12.8,6.3,19.1,18.1,16.6,30.1s-12.5,21-24.2,21.7c-12.9,0.8-23.8-6.4-27.7-18.4 c-3.3-10.3-1.1-19.5,6.3-27.2C550.2,170.2,560.1,168.5,571,172.2z M275.9,270.4c-49.9,21.8-104-4.3-116.5-55.6 c-10.7-44,17.6-89.9,61.6-99.8c45.7-10.3,90.6,18,100.1,63.1C329,216.1,311,253.1,275.9,270.4z M433.1,374.6c0,4.8-2.7,6.3-7,6.3 c-11.8-0.1-23.6,0-36,0c0,8.8,0,17.4,0,26c0,3.3,0,6.7,0,10c-0.1,5.5-1.6,7-7.2,7c-12.2,0-24.3,0-36.5,0c-6.1,0-7.5-1.4-7.5-7.8 c0-10,0-20,0-30c0-1.6,0-3.2,0-5.3c-11.7,0-23,0-34.3,0c-7.7,0-8.8-1-8.8-8.5c0-12,0-24,0-36c0-5.4,1.4-6.8,6.8-6.8 c10.3-0.1,20.7,0,31,0c1.6,0,3.2,0,5.3,0c0-11,0-21.5,0-31.9c0-10.8,0.4-11.3,10.5-11.3c10.8,0,21.7,0,32.5,0c6.9,0,8.2,1.3,8.2,8.1 c0,11.5,0,23,0,35.1c3.8,0,7.4,0,11,0c8.7,0,17.3,0,26,0c4.1,0,6.1,1.9,6.1,6.1C433.1,348.6,433.1,361.6,433.1,374.6z M442.5,213 c-6.6,9.4-16.1,12.9-27.1,10.7c-11.1-2.2-18.1-9.4-20.9-20.4c-2.9-11.7,3.3-24.6,14.4-30.1c11.8-5.8,24.9-2.4,33.8,8.7 C449.3,192.8,449.4,203.1,442.5,213z M676.9,404.4c-23.7,22.9-51.2,31-82.2,22.2c-30.7-8.7-50.3-29.6-58.2-60.6 c-11.1-43.8,17.1-89.2,61.5-99.7c44.5-10.5,90.2,17.7,99.8,62.1C704.2,357.3,696.9,382.6,676.9,404.4z M748.7,306.1 c-22.7,4.6-45.2-9.9-49.8-32.2c-2-9.5-0.8-18.5,3.2-27.2c9.3-17.1,26.1-26,43.3-23.6c18.2,2.6,32.2,15.7,35.9,34 C785.9,279.3,771.1,301.6,748.7,306.1z M847.6,215.1c-9.6,18.6-28.5,27.7-47.4,23.2c-19.3-4.6-32.5-20.9-32.9-40.5 c-0.4-19.2,12.9-36.6,32-41.2c16.5-4,30.8,0.6,41.8,13.3C852.8,183.3,854.5,198.7,847.6,215.1z"/> </svg>